<?xml version="1.0" encoding="UTF-8" standalone="no"?>
<svg
   width="500"
   zoomAndPan="magnify"
   viewBox="0 0 375 374.99998"
   height="500"
   preserveAspectRatio="xMidYMid"
   version="1.0"
   id="svg14"
   sodipodi:docname="bar_chart.svg"
   xmlns:inkscape="http://www.inkscape.org/namespaces/inkscape"
   xmlns:sodipodi="http://sodipodi.sourceforge.net/DTD/sodipodi-0.dtd"
   xmlns="http://www.w3.org/2000/svg"
   xmlns:svg="http://www.w3.org/2000/svg">
  <sodipodi:namedview
     id="namedview14"
     pagecolor="#ffffff"
     bordercolor="#000000"
     borderopacity="0.25"
     inkscape:showpageshadow="2"
     inkscape:pageopacity="0.0"
     inkscape:pagecheckerboard="0"
     inkscape:deskcolor="#d1d1d1">
    <inkscape:page
       x="0"
       y="0"
       width="375"
       height="374.99997"
       id="page2"
       margin="0"
       bleed="0" />
  </sodipodi:namedview>
  <defs
     id="defs4" />
  <g
     id="g14"
     transform="matrix(1.5079683,0,0,1.5079683,14.004119,10.313719)">
    <path
       fill="#22c9c3"
       d="M 137.08203,200.73047 V 41.613281 c 0,-7.128906 -0.0156,-11.738281 -0.46875,-15.136719 -0.42969,-3.183593 -1.12109,-4.183593 -1.67969,-4.742187 -0.55859,-0.558594 -1.55859,-1.25 -4.74218,-1.679687 -3.39844,-0.457032 -8.00782,-0.472657 -15.14063,-0.472657 -7.1289,0 -11.73828,0.01563 -15.136718,0.472657 -3.183593,0.429687 -4.183593,1.121093 -4.742187,1.679687 -0.558594,0.558594 -1.25,1.558594 -1.679687,4.742187 -0.457032,3.398438 -0.472657,8.007813 -0.472657,15.136719 V 200.73047 Z m 0,0"
       fill-opacity="1"
       fill-rule="evenodd"
       id="path5" />
    <path
       fill="#22c9c3"
       d="m 78.332031,85.675781 c 0,-4.054687 -3.285156,-7.34375 -7.34375,-7.34375 h -29.375 c -4.054687,0 -7.34375,3.289063 -7.34375,7.34375 V 200.73047 h 44.0625 z m 0,0"
       fill-opacity="0.7"
       fill-rule="nonzero"
       id="path6" />
    <path
       fill="#22c9c3"
       d="m 195.83594,134.63672 c 0,-4.05469 -3.28907,-7.34375 -7.34375,-7.34375 h -29.375 c -4.0586,0 -7.34375,3.28906 -7.34375,7.34375 v 66.09375 h 44.0625 z m 0,0"
       fill-opacity="0.7"
       fill-rule="nonzero"
       id="path7" />
    <path
       fill="#22c9c3"
       d="m 17.136719,200.73047 c -4.058594,0 -7.34375,3.28906 -7.34375,7.34375 0,4.05469 3.285156,7.34375 7.34375,7.34375 H 212.96875 c 4.05859,0 7.34375,-3.28906 7.34375,-7.34375 0,-4.05469 -3.28516,-7.34375 -7.34375,-7.34375 z m 0,0"
       fill-opacity="0.5"
       fill-rule="nonzero"
       id="path8" />
  </g>
</svg>
