<?xml version="1.0" encoding="UTF-8" standalone="no"?>
<svg
   width="500"
   zoomAndPan="magnify"
   viewBox="0 0 375 375"
   height="500"
   preserveAspectRatio="xMidYMid"
   version="1.0"
   id="svg8"
   sodipodi:docname="record_voice.svg"
   inkscape:export-filename="record_voice.png"
   inkscape:export-xdpi="96"
   inkscape:export-ydpi="96"
   inkscape:version="1.4.2 (ebf0e940d0, 2025-05-08)"
   xmlns:inkscape="http://www.inkscape.org/namespaces/inkscape"
   xmlns:sodipodi="http://sodipodi.sourceforge.net/DTD/sodipodi-0.dtd"
   xmlns="http://www.w3.org/2000/svg"
   xmlns:svg="http://www.w3.org/2000/svg">
  <sodipodi:namedview
     id="namedview8"
     pagecolor="#ffffff"
     bordercolor="#000000"
     borderopacity="0.25"
     inkscape:showpageshadow="2"
     inkscape:pageopacity="0.0"
     inkscape:pagecheckerboard="0"
     inkscape:deskcolor="#d1d1d1"
     inkscape:zoom="0.696"
     inkscape:cx="249.28161"
     inkscape:cy="250"
     inkscape:window-width="1920"
     inkscape:window-height="1200"
     inkscape:window-x="0"
     inkscape:window-y="0"
     inkscape:window-maximized="1"
     inkscape:current-layer="svg8">
    <inkscape:page
       x="0"
       y="0"
       width="375"
       height="375"
       id="page2"
       margin="0"
       bleed="0" />
  </sodipodi:namedview>
  <defs
     id="defs1">
    <clipPath
       id="b50fd3df0b">
      <path
         d="M 147.97656,0.15625 H 381.67187 V 233.84766 H 147.97656 Z m 0,0"
         clip-rule="nonzero"
         id="path1" />
    </clipPath>
    <clipPath
       id="c8ff4a7580">
      <rect
         x="0"
         width="235"
         y="0"
         height="234"
         id="rect1" />
    </clipPath>
  </defs>
  <g
     clip-path="url(#b50fd3df0b)"
     id="g8"
     transform="matrix(1.4574449,0,0,1.4574449,-193.92218,20.144691)">
    <g
       transform="translate(147)"
       id="g7">
      <g
         clip-path="url(#c8ff4a7580)"
         id="g6">
        <path
           fill="#90e3e0"
           d="m 1.957031,150.49219 c -0.019531,3.57422 2.859375,6.48828 6.433594,6.51172 0.015625,0 0.03125,0 0.046875,0 l 32.457031,0.082 c 3.578125,0.008 6.484375,-2.88672 6.492188,-6.46485 0,0 0,-0.004 0,-0.008 0.01953,-3.57812 -2.863281,-6.49609 -6.441407,-6.51562 -0.0039,0 -0.01172,0 -0.01953,0 L 8.46875,144.01172 c -3.585938,-0.008 -6.5,2.88672 -6.511719,6.47265 0,0.004 0,0.004 0,0.008 z m 10.304688,-35.63281 c -1.539063,3.23828 -0.164063,7.10937 3.074219,8.64843 0.0039,0.004 0.0039,0.004 0.0078,0.004 l 29.324219,13.92578 c 3.242187,1.53516 7.113281,0.14844 8.648437,-3.09375 1.535156,-3.24219 0.148438,-7.11328 -3.09375,-8.64844 L 20.90625,111.77734 c -3.238281,-1.53515 -7.109375,-0.15625 -8.644531,3.08204 z m -0.175781,71.32421 c -1.523438,-3.24609 -0.128907,-7.10937 3.117187,-8.63672 l 29.386719,-13.77343 c 3.191406,-1.63282 7.101562,-0.36719 8.734375,2.82422 1.632812,3.1914 0.367187,7.10156 -2.824219,8.73437 -0.132812,0.0664 -0.269531,0.13281 -0.40625,0.19141 l -29.382812,13.78125 c -3.242188,1.51562 -7.105469,0.12109 -8.625,-3.1211 z m 0,0"
           fill-opacity="1"
           fill-rule="nonzero"
           id="path5" />
        <path
           fill="#22c9c3"
           d="M 52.976562,96.714844 C 62.191406,93.996094 70.457031,86.671875 73.332031,82.109375 78.265625,74.269531 72.3125,72.238281 74.324219,50.375 76.175781,30.359375 103.73438,8.832031 137.23047,6.644531 c 15.22656,-0.992187 31.0664,2.117188 47.29687,10.992188 41.67578,22.792969 58.1875,70.964843 26.00391,117.488281 -29.01563,41.9375 -1.79297,60.88672 -1.79297,60.88672 0,0 -1.07812,8.82812 -18.91406,20.69531 -17.84766,11.85938 -39.73438,3.81641 -39.73438,3.81641 0,0 -7.21875,-25.66797 -30.82421,-23.30469 -16.91407,2.49219 -40.675786,-0.83984 -46.679692,-6.64844 -5.613282,-5.43359 0.980468,-12.24219 -3.5,-27.42187 15.355468,-1.50391 23.792968,-8.82032 24.605468,-19.13672 -17.042968,1.65625 -24.070312,-3.75 -28.941406,-9.70313 0.136719,-3.5039 0.488281,-10.94531 0.824219,-15.92968 C 50.503906,114.01563 44.726562,99.148438 52.976562,96.714844 Z m 0,0"
           fill-opacity="1"
           fill-rule="nonzero"
           id="path6" />
      </g>
    </g>
  </g>
</svg>
